<mxfile host="app.diagrams.net" modified="2024-04-20T11:55:47.261Z" agent="Mozilla/5.0 (Macintosh; Intel Mac OS X 10_15_7) AppleWebKit/537.36 (KHTML, like Gecko) Chrome/123.0.0.0 Safari/537.36" etag="nbrAm1vcyCndoSd9zZ53" version="24.2.5" type="github">
  <diagram name="第 1 页" id="nS08pbbxPLxsnJHfObcM">
    <mxGraphModel dx="3190" dy="830" grid="0" gridSize="10" guides="1" tooltips="1" connect="1" arrows="1" fold="1" page="1" pageScale="1" pageWidth="1654" pageHeight="2336" math="0" shadow="0">
      <root>
        <mxCell id="0" />
        <mxCell id="1" parent="0" />
        <mxCell id="TP0C0GY9VGcONY3AiUD3-8" style="edgeStyle=orthogonalEdgeStyle;rounded=0;orthogonalLoop=1;jettySize=auto;html=1;exitX=1;exitY=0.5;exitDx=0;exitDy=0;exitPerimeter=0;" edge="1" parent="1" source="7YhYDcOaufsSBROJGKCy-3" target="TP0C0GY9VGcONY3AiUD3-6">
          <mxGeometry relative="1" as="geometry" />
        </mxCell>
        <mxCell id="7YhYDcOaufsSBROJGKCy-3" value="" style="sketch=0;aspect=fixed;pointerEvents=1;shadow=0;dashed=0;html=1;strokeColor=none;labelPosition=center;verticalLabelPosition=bottom;verticalAlign=top;align=center;fillColor=#00188D;shape=mxgraph.azure.file;fontStyle=1" parent="1" vertex="1">
          <mxGeometry x="23.5" y="462" width="47" height="50" as="geometry" />
        </mxCell>
        <mxCell id="7YhYDcOaufsSBROJGKCy-17" value="" style="edgeStyle=orthogonalEdgeStyle;rounded=0;orthogonalLoop=1;jettySize=auto;html=1;entryX=-0.002;entryY=0.517;entryDx=0;entryDy=0;entryPerimeter=0;curved=1;fontStyle=1" parent="1" source="7YhYDcOaufsSBROJGKCy-4" target="7YhYDcOaufsSBROJGKCy-13" edge="1">
          <mxGeometry relative="1" as="geometry">
            <mxPoint x="673.6000000000001" y="485" as="targetPoint" />
          </mxGeometry>
        </mxCell>
        <mxCell id="7YhYDcOaufsSBROJGKCy-45" value="left join" style="edgeLabel;html=1;align=center;verticalAlign=middle;resizable=0;points=[];fontStyle=1;fontColor=#FF0000;" parent="7YhYDcOaufsSBROJGKCy-17" vertex="1" connectable="0">
          <mxGeometry x="-0.0017" y="2" relative="1" as="geometry">
            <mxPoint y="-6" as="offset" />
          </mxGeometry>
        </mxCell>
        <mxCell id="7YhYDcOaufsSBROJGKCy-4" value="" style="verticalLabelPosition=bottom;aspect=fixed;html=1;shape=mxgraph.salesforce.data;fontStyle=1" parent="1" vertex="1">
          <mxGeometry x="560.7" y="455" width="48.6" height="60" as="geometry" />
        </mxCell>
        <mxCell id="7YhYDcOaufsSBROJGKCy-5" value="样本文件&lt;div&gt;（Excel、CSV）&lt;/div&gt;" style="text;html=1;align=center;verticalAlign=middle;resizable=0;points=[];autosize=1;strokeColor=none;fillColor=none;fontStyle=1" parent="1" vertex="1">
          <mxGeometry x="-7" y="517" width="108" height="41" as="geometry" />
        </mxCell>
        <mxCell id="7YhYDcOaufsSBROJGKCy-7" value="样本表" style="text;html=1;align=center;verticalAlign=middle;resizable=0;points=[];autosize=1;strokeColor=none;fillColor=none;fontStyle=1" parent="1" vertex="1">
          <mxGeometry x="555" y="510" width="60" height="30" as="geometry" />
        </mxCell>
        <mxCell id="TP0C0GY9VGcONY3AiUD3-15" style="edgeStyle=orthogonalEdgeStyle;rounded=0;orthogonalLoop=1;jettySize=auto;html=1;" edge="1" parent="1" source="7YhYDcOaufsSBROJGKCy-8" target="7YhYDcOaufsSBROJGKCy-55">
          <mxGeometry relative="1" as="geometry" />
        </mxCell>
        <mxCell id="7YhYDcOaufsSBROJGKCy-8" value="" style="verticalLabelPosition=bottom;aspect=fixed;html=1;shape=mxgraph.salesforce.data;fontStyle=1" parent="1" vertex="1">
          <mxGeometry x="143.7" y="166" width="48.6" height="60" as="geometry" />
        </mxCell>
        <mxCell id="7YhYDcOaufsSBROJGKCy-13" value="" style="verticalLabelPosition=bottom;aspect=fixed;html=1;shape=mxgraph.salesforce.data;fontStyle=1" parent="1" vertex="1">
          <mxGeometry x="752.7" y="325" width="48.6" height="60" as="geometry" />
        </mxCell>
        <mxCell id="7YhYDcOaufsSBROJGKCy-15" value="特征表1" style="text;html=1;align=center;verticalAlign=middle;resizable=0;points=[];autosize=1;strokeColor=none;fillColor=none;fontStyle=1" parent="1" vertex="1">
          <mxGeometry x="739.7" y="385" width="70" height="30" as="geometry" />
        </mxCell>
        <mxCell id="7YhYDcOaufsSBROJGKCy-18" value="" style="verticalLabelPosition=bottom;aspect=fixed;html=1;shape=mxgraph.salesforce.data;fontStyle=1" parent="1" vertex="1">
          <mxGeometry x="752.7" y="455" width="48.6" height="60" as="geometry" />
        </mxCell>
        <mxCell id="7YhYDcOaufsSBROJGKCy-19" value="特征表2" style="text;html=1;align=center;verticalAlign=middle;resizable=0;points=[];autosize=1;strokeColor=none;fillColor=none;fontStyle=1" parent="1" vertex="1">
          <mxGeometry x="743.7" y="515" width="70" height="30" as="geometry" />
        </mxCell>
        <mxCell id="7YhYDcOaufsSBROJGKCy-20" value="" style="verticalLabelPosition=bottom;aspect=fixed;html=1;shape=mxgraph.salesforce.data;fontStyle=1" parent="1" vertex="1">
          <mxGeometry x="752.7" y="583" width="48.6" height="60" as="geometry" />
        </mxCell>
        <mxCell id="7YhYDcOaufsSBROJGKCy-21" value="特征表3" style="text;html=1;align=center;verticalAlign=middle;resizable=0;points=[];autosize=1;strokeColor=none;fillColor=none;fontStyle=1" parent="1" vertex="1">
          <mxGeometry x="739.7" y="647" width="70" height="30" as="geometry" />
        </mxCell>
        <mxCell id="7YhYDcOaufsSBROJGKCy-25" style="edgeStyle=orthogonalEdgeStyle;rounded=0;orthogonalLoop=1;jettySize=auto;html=1;entryX=0.015;entryY=0.49;entryDx=0;entryDy=0;entryPerimeter=0;fontStyle=1" parent="1" source="7YhYDcOaufsSBROJGKCy-4" target="7YhYDcOaufsSBROJGKCy-18" edge="1">
          <mxGeometry relative="1" as="geometry" />
        </mxCell>
        <mxCell id="7YhYDcOaufsSBROJGKCy-48" value="left join" style="edgeLabel;html=1;align=center;verticalAlign=middle;resizable=0;points=[];fontStyle=1;fontColor=#FF0000;" parent="7YhYDcOaufsSBROJGKCy-25" vertex="1" connectable="0">
          <mxGeometry x="0.0586" y="-2" relative="1" as="geometry">
            <mxPoint x="22" y="-11" as="offset" />
          </mxGeometry>
        </mxCell>
        <mxCell id="7YhYDcOaufsSBROJGKCy-26" style="edgeStyle=orthogonalEdgeStyle;rounded=0;orthogonalLoop=1;jettySize=auto;html=1;entryX=0.015;entryY=0.557;entryDx=0;entryDy=0;entryPerimeter=0;curved=1;fontStyle=1" parent="1" source="7YhYDcOaufsSBROJGKCy-4" target="7YhYDcOaufsSBROJGKCy-20" edge="1">
          <mxGeometry relative="1" as="geometry" />
        </mxCell>
        <mxCell id="7YhYDcOaufsSBROJGKCy-47" value="left join" style="edgeLabel;html=1;align=center;verticalAlign=middle;resizable=0;points=[];fontStyle=1;fontColor=#FF0000;" parent="7YhYDcOaufsSBROJGKCy-26" vertex="1" connectable="0">
          <mxGeometry x="0.0443" y="1" relative="1" as="geometry">
            <mxPoint as="offset" />
          </mxGeometry>
        </mxCell>
        <mxCell id="7YhYDcOaufsSBROJGKCy-40" style="edgeStyle=orthogonalEdgeStyle;rounded=0;orthogonalLoop=1;jettySize=auto;html=1;fontStyle=1" parent="1" source="7YhYDcOaufsSBROJGKCy-27" target="7YhYDcOaufsSBROJGKCy-39" edge="1">
          <mxGeometry relative="1" as="geometry" />
        </mxCell>
        <mxCell id="7YhYDcOaufsSBROJGKCy-52" value="download" style="edgeLabel;html=1;align=center;verticalAlign=middle;resizable=0;points=[];fontStyle=1;fontColor=#FF0000;" parent="7YhYDcOaufsSBROJGKCy-40" vertex="1" connectable="0">
          <mxGeometry x="-0.0741" y="-2" relative="1" as="geometry">
            <mxPoint x="-11" y="-17" as="offset" />
          </mxGeometry>
        </mxCell>
        <mxCell id="7YhYDcOaufsSBROJGKCy-27" value="" style="verticalLabelPosition=bottom;aspect=fixed;html=1;shape=mxgraph.salesforce.data;fontStyle=1;fillColor=#cdeb8b;strokeColor=#36393d;" parent="1" vertex="1">
          <mxGeometry x="928.7" y="325" width="48.6" height="60" as="geometry" />
        </mxCell>
        <mxCell id="7YhYDcOaufsSBROJGKCy-28" value="结果表1" style="text;html=1;align=center;verticalAlign=middle;resizable=0;points=[];autosize=1;strokeColor=none;fillColor=none;fontStyle=1" parent="1" vertex="1">
          <mxGeometry x="918" y="385" width="70" height="30" as="geometry" />
        </mxCell>
        <mxCell id="7YhYDcOaufsSBROJGKCy-29" style="edgeStyle=orthogonalEdgeStyle;rounded=0;orthogonalLoop=1;jettySize=auto;html=1;entryX=0.009;entryY=0.5;entryDx=0;entryDy=0;entryPerimeter=0;fontStyle=1" parent="1" source="7YhYDcOaufsSBROJGKCy-13" target="7YhYDcOaufsSBROJGKCy-27" edge="1">
          <mxGeometry relative="1" as="geometry" />
        </mxCell>
        <mxCell id="7YhYDcOaufsSBROJGKCy-49" value="insert" style="edgeLabel;html=1;align=center;verticalAlign=middle;resizable=0;points=[];fontStyle=1;fontColor=#FF0000;" parent="7YhYDcOaufsSBROJGKCy-29" vertex="1" connectable="0">
          <mxGeometry x="-0.1609" relative="1" as="geometry">
            <mxPoint x="-1" y="-12" as="offset" />
          </mxGeometry>
        </mxCell>
        <mxCell id="7YhYDcOaufsSBROJGKCy-42" style="edgeStyle=orthogonalEdgeStyle;rounded=0;orthogonalLoop=1;jettySize=auto;html=1;fontStyle=1" parent="1" source="7YhYDcOaufsSBROJGKCy-30" target="7YhYDcOaufsSBROJGKCy-41" edge="1">
          <mxGeometry relative="1" as="geometry" />
        </mxCell>
        <mxCell id="7YhYDcOaufsSBROJGKCy-53" value="download" style="edgeLabel;html=1;align=center;verticalAlign=middle;resizable=0;points=[];fontStyle=1;fontColor=#FF0000;" parent="7YhYDcOaufsSBROJGKCy-42" vertex="1" connectable="0">
          <mxGeometry x="-0.2504" y="-2" relative="1" as="geometry">
            <mxPoint x="10" y="-12" as="offset" />
          </mxGeometry>
        </mxCell>
        <mxCell id="7YhYDcOaufsSBROJGKCy-30" value="" style="verticalLabelPosition=bottom;aspect=fixed;html=1;shape=mxgraph.salesforce.data;fontStyle=1;fillColor=#cdeb8b;strokeColor=#36393d;" parent="1" vertex="1">
          <mxGeometry x="928.7" y="455" width="48.6" height="60" as="geometry" />
        </mxCell>
        <mxCell id="7YhYDcOaufsSBROJGKCy-31" value="结果表2" style="text;html=1;align=center;verticalAlign=middle;resizable=0;points=[];autosize=1;strokeColor=none;fillColor=none;fontStyle=1" parent="1" vertex="1">
          <mxGeometry x="918" y="515" width="70" height="30" as="geometry" />
        </mxCell>
        <mxCell id="7YhYDcOaufsSBROJGKCy-33" style="edgeStyle=orthogonalEdgeStyle;rounded=0;orthogonalLoop=1;jettySize=auto;html=1;entryX=-0.047;entryY=0.5;entryDx=0;entryDy=0;entryPerimeter=0;fontStyle=1" parent="1" source="7YhYDcOaufsSBROJGKCy-18" target="7YhYDcOaufsSBROJGKCy-30" edge="1">
          <mxGeometry relative="1" as="geometry" />
        </mxCell>
        <mxCell id="7YhYDcOaufsSBROJGKCy-50" value="insert" style="edgeLabel;html=1;align=center;verticalAlign=middle;resizable=0;points=[];fontStyle=1;fontColor=#FF0000;" parent="7YhYDcOaufsSBROJGKCy-33" vertex="1" connectable="0">
          <mxGeometry x="-0.1487" y="1" relative="1" as="geometry">
            <mxPoint y="-9" as="offset" />
          </mxGeometry>
        </mxCell>
        <mxCell id="7YhYDcOaufsSBROJGKCy-44" style="edgeStyle=orthogonalEdgeStyle;rounded=0;orthogonalLoop=1;jettySize=auto;html=1;fontStyle=1" parent="1" source="7YhYDcOaufsSBROJGKCy-34" target="7YhYDcOaufsSBROJGKCy-43" edge="1">
          <mxGeometry relative="1" as="geometry" />
        </mxCell>
        <mxCell id="7YhYDcOaufsSBROJGKCy-54" value="download" style="edgeLabel;html=1;align=center;verticalAlign=middle;resizable=0;points=[];fontStyle=1;fontColor=#FF0000;" parent="7YhYDcOaufsSBROJGKCy-44" vertex="1" connectable="0">
          <mxGeometry x="-0.0637" y="1" relative="1" as="geometry">
            <mxPoint x="-6" y="-11" as="offset" />
          </mxGeometry>
        </mxCell>
        <mxCell id="7YhYDcOaufsSBROJGKCy-34" value="" style="verticalLabelPosition=bottom;aspect=fixed;html=1;shape=mxgraph.salesforce.data;fontStyle=1;fillColor=#cdeb8b;strokeColor=#36393d;" parent="1" vertex="1">
          <mxGeometry x="928.7" y="583" width="48.6" height="60" as="geometry" />
        </mxCell>
        <mxCell id="7YhYDcOaufsSBROJGKCy-35" value="结果表3" style="text;html=1;align=center;verticalAlign=middle;resizable=0;points=[];autosize=1;strokeColor=none;fillColor=none;fontStyle=1" parent="1" vertex="1">
          <mxGeometry x="918" y="647" width="70" height="30" as="geometry" />
        </mxCell>
        <mxCell id="7YhYDcOaufsSBROJGKCy-36" style="edgeStyle=orthogonalEdgeStyle;rounded=0;orthogonalLoop=1;jettySize=auto;html=1;entryX=0.07;entryY=0.5;entryDx=0;entryDy=0;entryPerimeter=0;fontStyle=1" parent="1" source="7YhYDcOaufsSBROJGKCy-20" target="7YhYDcOaufsSBROJGKCy-34" edge="1">
          <mxGeometry relative="1" as="geometry" />
        </mxCell>
        <mxCell id="7YhYDcOaufsSBROJGKCy-51" value="insert" style="edgeLabel;html=1;align=center;verticalAlign=middle;resizable=0;points=[];fontStyle=1;fontColor=#FF0000;" parent="7YhYDcOaufsSBROJGKCy-36" vertex="1" connectable="0">
          <mxGeometry x="-0.1949" y="-1" relative="1" as="geometry">
            <mxPoint x="1" y="-13" as="offset" />
          </mxGeometry>
        </mxCell>
        <mxCell id="7YhYDcOaufsSBROJGKCy-39" value="" style="shape=image;html=1;verticalAlign=top;verticalLabelPosition=bottom;labelBackgroundColor=#ffffff;imageAspect=0;aspect=fixed;image=https://cdn1.iconfinder.com/data/icons/Futurosoft%20Icons%200.5.2/128x128/mimetypes/xls.png;fontStyle=1" parent="1" vertex="1">
          <mxGeometry x="1087.7" y="325" width="60" height="60" as="geometry" />
        </mxCell>
        <mxCell id="7YhYDcOaufsSBROJGKCy-41" value="" style="shape=image;html=1;verticalAlign=top;verticalLabelPosition=bottom;labelBackgroundColor=#ffffff;imageAspect=0;aspect=fixed;image=https://cdn1.iconfinder.com/data/icons/Futurosoft%20Icons%200.5.2/128x128/mimetypes/xls.png;fontStyle=1" parent="1" vertex="1">
          <mxGeometry x="1087.7" y="455" width="60" height="60" as="geometry" />
        </mxCell>
        <mxCell id="7YhYDcOaufsSBROJGKCy-43" value="" style="shape=image;html=1;verticalAlign=top;verticalLabelPosition=bottom;labelBackgroundColor=#ffffff;imageAspect=0;aspect=fixed;image=https://cdn1.iconfinder.com/data/icons/Futurosoft%20Icons%200.5.2/128x128/mimetypes/xls.png;fontStyle=1" parent="1" vertex="1">
          <mxGeometry x="1087.7" y="583" width="60" height="60" as="geometry" />
        </mxCell>
        <mxCell id="TP0C0GY9VGcONY3AiUD3-13" style="edgeStyle=orthogonalEdgeStyle;rounded=0;orthogonalLoop=1;jettySize=auto;html=1;curved=1;" edge="1" parent="1" source="7YhYDcOaufsSBROJGKCy-55" target="TP0C0GY9VGcONY3AiUD3-6">
          <mxGeometry relative="1" as="geometry" />
        </mxCell>
        <mxCell id="TP0C0GY9VGcONY3AiUD3-18" value="补全用户主键" style="edgeLabel;html=1;align=center;verticalAlign=middle;resizable=0;points=[];" vertex="1" connectable="0" parent="TP0C0GY9VGcONY3AiUD3-13">
          <mxGeometry x="0.1996" y="-3" relative="1" as="geometry">
            <mxPoint x="-2" y="20" as="offset" />
          </mxGeometry>
        </mxCell>
        <mxCell id="7YhYDcOaufsSBROJGKCy-55" value="" style="verticalLabelPosition=bottom;html=1;verticalAlign=top;strokeWidth=1;align=center;outlineConnect=0;dashed=0;outlineConnect=0;shape=mxgraph.aws3d.dataServer;strokeColor=#36393d;aspect=fixed;fontStyle=1;fillColor=#cdeb8b;" parent="1" vertex="1">
          <mxGeometry x="138" y="306" width="61.5" height="53" as="geometry" />
        </mxCell>
        <mxCell id="7YhYDcOaufsSBROJGKCy-57" value="Hbase" style="text;html=1;align=center;verticalAlign=middle;resizable=0;points=[];autosize=1;strokeColor=none;fillColor=none;fontStyle=1" parent="1" vertex="1">
          <mxGeometry x="138" y="359" width="60" height="30" as="geometry" />
        </mxCell>
        <mxCell id="TP0C0GY9VGcONY3AiUD3-1" value="" style="shape=image;html=1;verticalAlign=top;verticalLabelPosition=bottom;labelBackgroundColor=#ffffff;imageAspect=0;aspect=fixed;image=https://cdn1.iconfinder.com/data/icons/Futurosoft%20Icons%200.5.2/128x128/mimetypes/xls.png;fontStyle=1" vertex="1" parent="1">
          <mxGeometry x="388" y="457" width="60" height="60" as="geometry" />
        </mxCell>
        <mxCell id="TP0C0GY9VGcONY3AiUD3-3" style="edgeStyle=orthogonalEdgeStyle;rounded=0;orthogonalLoop=1;jettySize=auto;html=1;entryX=-0.01;entryY=0.534;entryDx=0;entryDy=0;entryPerimeter=0;" edge="1" parent="1" source="TP0C0GY9VGcONY3AiUD3-1" target="7YhYDcOaufsSBROJGKCy-4">
          <mxGeometry relative="1" as="geometry" />
        </mxCell>
        <mxCell id="TP0C0GY9VGcONY3AiUD3-4" value="&lt;b&gt;upload&lt;/b&gt;" style="edgeLabel;html=1;align=center;verticalAlign=middle;resizable=0;points=[];fontColor=#FF0000;" vertex="1" connectable="0" parent="TP0C0GY9VGcONY3AiUD3-3">
          <mxGeometry x="-0.3041" y="-1" relative="1" as="geometry">
            <mxPoint x="6" y="-9" as="offset" />
          </mxGeometry>
        </mxCell>
        <mxCell id="TP0C0GY9VGcONY3AiUD3-7" style="edgeStyle=orthogonalEdgeStyle;rounded=0;orthogonalLoop=1;jettySize=auto;html=1;" edge="1" parent="1" source="TP0C0GY9VGcONY3AiUD3-6" target="TP0C0GY9VGcONY3AiUD3-1">
          <mxGeometry relative="1" as="geometry" />
        </mxCell>
        <mxCell id="TP0C0GY9VGcONY3AiUD3-9" value="标准样本文件" style="edgeLabel;html=1;align=center;verticalAlign=middle;resizable=0;points=[];" vertex="1" connectable="0" parent="TP0C0GY9VGcONY3AiUD3-7">
          <mxGeometry x="-0.2019" relative="1" as="geometry">
            <mxPoint x="2" y="-8" as="offset" />
          </mxGeometry>
        </mxCell>
        <mxCell id="TP0C0GY9VGcONY3AiUD3-6" value="" style="sketch=0;pointerEvents=1;shadow=0;dashed=0;html=1;strokeColor=#b85450;fillColor=#f8cecc;labelPosition=center;verticalLabelPosition=bottom;verticalAlign=top;outlineConnect=0;align=center;shape=mxgraph.office.services.network_file_share_service;gradientColor=#ea6b66;" vertex="1" parent="1">
          <mxGeometry x="218.25" y="460.5" width="55" height="53" as="geometry" />
        </mxCell>
        <mxCell id="TP0C0GY9VGcONY3AiUD3-12" style="edgeStyle=orthogonalEdgeStyle;rounded=0;orthogonalLoop=1;jettySize=auto;html=1;entryX=1;entryY=0.5;entryDx=0;entryDy=0;entryPerimeter=0;endArrow=none;endFill=0;curved=1;startArrow=classic;startFill=1;" edge="1" parent="1" source="7YhYDcOaufsSBROJGKCy-55" target="7YhYDcOaufsSBROJGKCy-3">
          <mxGeometry relative="1" as="geometry" />
        </mxCell>
        <mxCell id="TP0C0GY9VGcONY3AiUD3-14" value="标准样本文件" style="text;html=1;align=center;verticalAlign=middle;resizable=0;points=[];autosize=1;strokeColor=none;fillColor=none;" vertex="1" parent="1">
          <mxGeometry x="373" y="515" width="90" height="26" as="geometry" />
        </mxCell>
        <mxCell id="TP0C0GY9VGcONY3AiUD3-16" value="&lt;span style=&quot;color: rgba(0, 0, 0, 0); font-family: monospace; font-size: 0px; text-align: start;&quot;&gt;y&lt;/span&gt;" style="text;html=1;align=center;verticalAlign=middle;resizable=0;points=[];autosize=1;strokeColor=none;fillColor=none;" vertex="1" parent="1">
          <mxGeometry x="166.75" y="104" width="18" height="26" as="geometry" />
        </mxCell>
        <mxCell id="TP0C0GY9VGcONY3AiUD3-17" value="用户信息表" style="text;html=1;align=center;verticalAlign=middle;resizable=0;points=[];autosize=1;strokeColor=none;fillColor=none;" vertex="1" parent="1">
          <mxGeometry x="129" y="138" width="78" height="26" as="geometry" />
        </mxCell>
      </root>
    </mxGraphModel>
  </diagram>
</mxfile>
